<?xml version="1.0" standalone="no"?>
<!DOCTYPE svg PUBLIC "-//W3C//DTD SVG 20010904//EN"
 "http://www.w3.org/TR/2001/REC-SVG-20010904/DTD/svg10.dtd">
<svg version="1.0" xmlns="http://www.w3.org/2000/svg"
 width="512.000000pt" height="512.000000pt" viewBox="0 0 512.000000 512.000000"
 preserveAspectRatio="xMidYMid meet">
<metadata>
Created by potrace 1.14, written by Peter Selinger 2001-2017
</metadata>
<g transform="translate(0.000000,512.000000) scale(0.100000,-0.100000)"
fill="#000000" stroke="none">
<path d="M1126 5109 c-410 -54 -785 -314 -973 -674 -54 -105 -78 -167 -116
-300 l-32 -110 -3 -1420 c-3 -1580 -6 -1514 64 -1725 66 -198 175 -370 328
-518 146 -140 300 -234 489 -297 205 -67 142 -65 1677 -65 1538 0 1471 -3
1680 66 198 66 370 174 518 328 140 145 234 300 297 489 69 208 66 145 63
1712 -4 1561 1 1439 -69 1649 -124 373 -432 681 -805 805 -210 70 -88 65
-1644 67 -783 1 -1435 -2 -1474 -7z m3034 -1784 l0 -345 -1595 0 -1595 0 0
345 0 345 1595 0 1595 0 0 -345z m0 -1720 l0 -345 -1595 0 -1595 0 0 345 0
345 1595 0 1595 0 0 -345z"/>
</g>
</svg>
